<svg xmlns="http://www.w3.org/2000/svg" viewBox="0 0 64 64">
  <path d="M64 32c0 17.675781-14.324219 32-32 32C14.328125 64 0 49.675781 0 32 0 14.328125 14.328125 0 32 0c17.675781 0 32 14.328125 32 32Zm0 0" style="stroke:none;fill-rule:nonzero;fill:#000;fill-opacity:1"/>
  <path d="M56.375048 62.019012c0 1.550273-1.251523 2.801796-2.793722 2.801796-1.550274 0-2.801797-1.251523-2.801797-2.801796 0-1.542199 1.251523-2.801796 2.801797-2.801796 1.542199 0 2.793722 1.259597 2.793722 2.801796Zm25.135423 0c0-1.542199-1.251523-2.801796-2.801797-2.801796-1.542199 0-2.801796 1.259597-2.801796 2.801796 0 1.550273 1.259597 2.801796 2.801796 2.801796 1.550274 0 2.801797-1.251523 2.801797-2.801796Zm0 0" style="fill:none;stroke-width:2.6458;stroke-linecap:round;stroke-linejoin:round;stroke:#fff;stroke-opacity:1;stroke-miterlimit:4" transform="scale(.48379)"/>
  <path d="M419.250488 250h30.761719M273.4375 250h102.294922m-251.525879 0H226.5625m-176.574707 0h30.792236" style="fill:none;stroke-width:10;stroke-linecap:round;stroke-linejoin:round;stroke:#fff;stroke-opacity:1;stroke-miterlimit:4" transform="scale(.128)"/>
  <path d="M41.009577 66.007736c.072669-13.758677 11.199111-24.901267 24.957788-24.998159 13.766751-.096892 25.046605 10.892286 25.313058 24.650963" style="fill:none;stroke-width:2.6458;stroke-linecap:round;stroke-linejoin:round;stroke:#fff;stroke-opacity:1;stroke-miterlimit:4" transform="scale(.48379)"/>
  <path d="M71.256058 59.637081c7.452616 33.87186-17.674732 33.87186-10.222116 0m-28.155226 6.370655c0 3.18129-2.575715 5.757005-5.757005 5.757005s-5.757005-2.575715-5.757005-5.757005 2.575715-5.757005 5.757005-5.757005 5.757005 2.575715 5.757005 5.757005Zm78.046578.137264c0 3.18129-2.575715 5.757005-5.757005 5.757005S99.411284 69.32629 99.411284 66.145s2.575715-5.757005 5.757005-5.757005 5.757005 2.575715 5.757005 5.757005Zm0 0" style="fill:none;stroke-width:2.6458;stroke-linecap:round;stroke-linejoin:round;stroke:#fff;stroke-opacity:1;stroke-miterlimit:4" transform="scale(.48379)"/>
</svg>
