<svg xmlns="http://www.w3.org/2000/svg" xmlns:xhtml="http://www.w3.org/1999/xhtml" style="background-color:#fff" viewBox="-.5 -.5 1654 1169">
  <rect width="1654" height="1169" x="-.5" y="-.5" rx="0" ry="0" style="fill:#fff;fill-opacity:1;stroke-width:1.25858;stroke-linecap:round;stroke-linejoin:round"/>
  <rect width="270" height="180" x="692" y="494" fill="#fff" stroke="#000" stroke-width="2" pointer-events="all" rx="27" ry="27"/>
  <switch transform="translate(-.5 -.5)">
    <text x="827" y="593" font-size="30" font-weight="bold" text-anchor="middle">Controller</text>
  </switch>
  <rect width="270" height="180" x="200" y="200" fill="#fff" stroke="#000" stroke-width="2" pointer-events="all" rx="27" ry="27"/>
  <switch transform="translate(-.5 -.5)">
    <text x="335" y="299" font-size="30" font-weight="bold" text-anchor="middle">Web UI</text>
  </switch>
  <path fill="none" stroke="#000" stroke-dasharray="6 6" stroke-miterlimit="10" stroke-width="2" d="M1173.76 290h-100.9v249.14l-100.62-.13" pointer-events="stroke"/>
  <path stroke="#000" stroke-miterlimit="10" stroke-width="2" d="m1181.76 290-8 4v-8zM964.24 539l8-3.99-.01 8z" pointer-events="all"/>
  <switch transform="translate(-.5 -.5)">
    <text x="1040" y="403" font-size="15" text-anchor="middle">gRPC</text>
  </switch>
  <rect width="270" height="180" x="1184" y="200" fill="#fff" stroke="#000" stroke-width="2" pointer-events="all" rx="27" ry="27"/>
  <switch transform="translate(-.5 -.5)">
    <text x="1319" y="299" font-size="30" font-weight="bold" text-anchor="middle">Face</text>
  </switch>
  <path fill="none" stroke="#000" stroke-dasharray="6 6" stroke-miterlimit="10" stroke-width="2" d="M1173.76 879.14h-100.9v-250l-100.62-.13" pointer-events="stroke"/>
  <path stroke="#000" stroke-miterlimit="10" stroke-width="2" d="m1181.76 879.14-8 4v-8zM964.24 629l8-3.99-.01 8z" pointer-events="all"/>
  <switch transform="translate(-.5 -.5)">
    <text x="1040" y="763" font-size="15" text-anchor="middle">gRPC</text>
  </switch>
  <rect width="270" height="180" x="1184" y="789" fill="#fff" stroke="#000" stroke-width="2" pointer-events="all" rx="27" ry="27"/>
  <switch transform="translate(-.5 -.5)">
    <text x="1319" y="888" font-size="30" font-weight="bold" text-anchor="middle">Module</text>
  </switch>
  <path fill="none" stroke="#000" stroke-dasharray="6 6" stroke-miterlimit="10" stroke-width="2" d="M335 483.76v-93.52" pointer-events="stroke"/>
  <path stroke="#000" stroke-miterlimit="10" stroke-width="2" d="m335 491.76-4-8h8zm0-109.52 4 8h-8z" pointer-events="all"/>
  <switch transform="translate(-.5 -.5)">
    <text x="390" y="444" font-size="15" text-anchor="middle">gRPC-Web</text>
  </switch>
  <path fill="none" stroke="#000" stroke-dasharray="6 6" stroke-miterlimit="10" stroke-width="2" d="M480.24 584h201.52" pointer-events="stroke"/>
  <path stroke="#000" stroke-miterlimit="10" stroke-width="2" d="m472.24 584 8-4v8zm217.52 0-8 4v-8z" pointer-events="all"/>
  <switch transform="translate(-.5 -.5)">
    <text x="581" y="565" font-size="15" text-anchor="middle">gRPC</text>
  </switch>
  <rect width="270" height="180" x="200" y="494" fill="#fff" stroke="#000" stroke-width="2" pointer-events="all" rx="27" ry="27"/>
  <switch transform="translate(-493.45947 -3.9393231)">
    <text x="828.4668" y="577.20203" font-size="30" font-weight="bold" text-anchor="middle"><tspan x="828.4668" y="577.20203">gRPC-Web</tspan><tspan x="828.4668" y="614.70203">Proxy</tspan></text>
  </switch>
</svg>
